# xmcd
#
# Track frame offsets:
#	150
#	20013
#	36355
#	56580
#	77185
#	90800
#	119163
#	130513
#	144613
#	165330
#
# Disc length: 2508 seconds
#
# Revision: 0
# Processed by: cddbd v1.5.2PL0 Copyright (c) Steve Scherf et al.
# Submitted via: audiograbber 1.83.01
#
DISCID=7e09ca0a
DTITLE=Buddy Guy and Junior Wells - The Original Blues Brothers Live
DYEAR=1999
DGENRE=Blues
TTITLE0=Everyday I Have The Blues [Live]
TTITLE1=Satisfaction [Live]
TTITLE2=Junior's Shuffle [Live]
TTITLE3=Just To Be With You [Live]
TTITLE4=No Use Cryin' [Live]
TTITLE5=Out Of Sight [Live]
TTITLE6=Messin' With The Kid [Live]
TTITLE7=Woman Blues [Live]
TTITLE8=Buddy's Blues [Live]
TTITLE9=Stormy Monday [Live]
EXTD=
EXTT0=
EXTT1=
EXTT2=
EXTT3=
EXTT4=
EXTT5=
EXTT6=
EXTT7=
EXTT8=
EXTT9=
PLAYORDER=
